{"title":"The Spy Next Door-AC3-5,1-DVDRip[Eng]2010 2Lions-Team","uid":5540852,"size":1464392388,"categoryP":"video","categoryS":"movies","magnet":"?xt=urn:btih:3ea069fb0b03d473d67388d876d72cea1ea6c523&amp;dn=The+Spy+Next+Door-AC3-5%2C1-DVDRip%5BEng%5D2010+2Lions-Team&amp;tr=udp%3A%2F%2Ftracker.openbittorrent.com%3A80&amp;tr=udp%3A%2F%2Fopen.demonii.com%3A1337&amp;tr=udp%3A%2F%2Ftracker.coppersurfer.tk%3A6969&amp;tr=udp%3A%2F%2Fexodus.desync.com%3A6969","seeders":0,"leechers":1,"uploader":"FatFreddy31","files":-1,"time":1273226208,"description":"Former CIA spy Bob Ho takes on his toughest assignment to date: looking after his girlfriend's three kids, who haven't exactly warmed to their mom's beau. And when one of the youngsters accidentally downloads a top-secret formula, Bob's longtime nemesis, a Russian terrorist, pays a visit to the family.\n &lt;a href=&quot;\nhttp://www.imdb.com/title/tt1273678/&quot; rel=&quot;nofollow&quot; target=&quot;_NEW&quot;&gt;\nhttp://www.imdb.com/title/tt1273678/&lt;/a&gt;\n\nSubtitles (srt) : Arabic, Dutch, English, Romanian and Spanish.\n\nCovers included.\n\nUndercover spion Bob Ho besluit zijn spionagecarriÃƒÂ¨re op te geven om meer tijd met zijn vriendin en buurvrouw Gillian door te brengen. Maar, Bob moet eerst nog ÃƒÂ©ÃƒÂ©n missie volbrengen voordat Gillian met hem wil trouwen: het overwinnen van haar drie eigenwijze kinderen. Als Gillian plotseling de stad uit moet, past Bob op de kinderen om hen beter te leren kennen. Als ÃƒÂ©ÃƒÂ©n van de kinderen per ongeluk een \ntop-secret formule download komt een Russische terrorist ze op het spoor...\n &lt;a href=&quot;\nhttp://www.moviemeter.nl/film/60977&quot; rel=&quot;nofollow&quot; target=&quot;_NEW&quot;&gt;\nhttp://www.moviemeter.nl/film/60977&lt;/a&gt;\n\nOndertitels (srt) : Arabisch, Engels, Nederlands, Roemeens en Spaans.\n\nHoesjes bijgevoegd.\n\nGeneral\nComplete name                    : The Spy Next Door-AC3-5,1-DVDRip[Eng]2010.avi\nFormat                           : AVI\nFormat/Info                      : Audio Video Interleave\nFile size                        : 1.36 GiB\nDuration                         : 1h 34mn\nOverall bit rate                 : 2 068 Kbps\nWriting application              : VirtualDubMod 1.5.4.1 (build 2178/release)\nWriting library                  : VirtualDubMod build 2178/release\n\nVideo\nID                               : 0\nFormat                           : MPEG-4 Visual\nFormat profile                   : Simple@L3\nFormat settings, BVOP            : No\nFormat settings, QPel            : No\nFormat settings, GMC             : No warppoints\nFormat settings, Matrix          : Default (H.263)\nCodec ID                         : XVID\nCodec ID/Hint                    : XviD\nDuration                         : 1h 34mn\nBit rate                         : 1 611 Kbps\nWidth                            : 720 pixels\nHeight                           : 400 pixels\nDisplay aspect ratio             : 16:9\nFrame rate                       : 23.976 fps\nResolution                       : 24 bits\nColorimetry                      : 4:2:0\nScan type                        : Progressive\nBits/(Pixel*Frame)               : 0.233\nStream size                      : 1.06 GiB (78%)\nWriting library                  : XviD 1.1.2 (UTC 2006-11-01)\n\nAudio\nID                               : 1\nFormat                           : AC-3\nFormat/Info                      : Audio Coding 3\nCodec ID                         : 2000\nDuration                         : 1h 34mn\nBit rate mode                    : Constant\nBit rate                         : 448 Kbps\nChannel(s)                       : 6 channels\nChannel positions                : Front: L C R, Surround: L R, LFE\nSampling rate                    : 48.0 KHz\nStream size                      : 302 MiB (22%)\nAlignment                        : Split accross interleaves\nInterleave, duration             : 42 ms (1.00 video frame)\nInterleave, preload duration     : 500 ms\n\nSource                           : The.Spy.Next.Door.DVDR-Replica\n\nThanks to SimplyReleaseS for the source.\n\nBrought to you by \n2Lions Team\n\nmeer zien??\nKom dan eens kijken op ons forum \n                    &lt;a href=&quot;\nhttp://www.2lions.ons-forum.nl&quot; rel=&quot;nofollow&quot; target=&quot;_NEW&quot;&gt;\nhttp://www.2lions.ons-forum.nl&lt;/a&gt;\n\n2Lions the site to be for all your Dutch MOVIES and more\n\n******************************************\n\nDON T HIT AND RUN Niet gelijk afhaken als de FILM binnen is blijf seeden. \n\nDon`t quit after you finished the download, but keep seeding\n\nThere are fake torrents from uploaders who use our team name.\nThose are not ours, or members from our team.\nWe 2Lions-Team are not responsible for the fake posts on our name\n\nWij 2Lions-Team zijn niet verantwoordelijk voor die zieke FAKE posten die op onze naam worden gedaan\n\nPlease check our site !!!\n\nto the fakers , get a life !!!","torrent":{"xt":"urn:btih:3ea069fb0b03d473d67388d876d72cea1ea6c523","amp;dn":"The+Spy+Next+Door-AC3-5%2C1-DVDRip%5BEng%5D2010+2Lions-Team","amp;tr":["udp%3A%2F%2Ftracker.openbittorrent.com%3A80","udp%3A%2F%2Fopen.demonii.com%3A1337","udp%3A%2F%2Ftracker.coppersurfer.tk%3A6969","udp%3A%2F%2Fexodus.desync.com%3A6969"],"infoHash":"3ea069fb0b03d473d67388d876d72cea1ea6c523","infoHashBuffer":{"type":"Buffer","data":[62,160,105,251,11,3,212,115,214,115,136,216,118,215,44,234,30,166,197,35]},"announce":[],"urlList":[]}}